<?xml version="1.0" encoding="UTF-8" standalone="no"?>
<!DOCTYPE svg PUBLIC "-//W3C//DTD SVG 1.1//EN" "http://www.w3.org/Graphics/SVG/1.1/DTD/svg11.dtd">
<svg width="100%" height="100%" viewBox="0 0 1134 300" version="1.1" xmlns="http://www.w3.org/2000/svg" xmlns:xlink="http://www.w3.org/1999/xlink" xml:space="preserve" xmlns:serif="http://www.serif.com/" style="fill-rule:evenodd;clip-rule:evenodd;stroke-linecap:round;stroke-linejoin:round;stroke-miterlimit:1.5;">
    <g transform="matrix(1,0,0,1,-51.9624,-162.5)">
        <g id="Isotipo" transform="matrix(1,0,0,1,-204,2.99287)">
            <path d="M258,272C257.768,270.899 258.642,269.596 260.724,267.52C286.468,241.858 337.636,229.673 371.769,250.796C374.277,252.348 376.014,254.38 377,254C377.986,253.62 377.94,251.017 377.688,248.518C373.83,210.376 412.045,171.644 448.924,161.533C454.705,159.948 460.573,159.264 462,161C463.427,162.736 460.108,167.64 457.486,171.947C442.244,196.988 434.644,221.601 440.229,243.715C440.937,246.518 441.899,250.368 444,251C446.101,251.632 449.67,249.158 452.835,247.505C472.357,237.312 487.443,221.344 495.878,201.478C496.64,199.683 497.06,198.225 498,198C498.94,197.775 500.425,198.701 501.519,200.126C518.446,222.179 516.603,255.658 499.64,273.908C497.096,276.644 493.464,279.416 494,281C494.536,282.584 498.432,282.816 502.853,283.412C527.667,286.761 565.195,283.552 580.066,273.43C583.378,271.175 590.654,270.33 592,272C593.346,273.67 589.71,279.892 588.142,283.448C574.295,314.854 544.759,334.715 517.325,336.084C514.862,336.206 511.159,336.204 511,337C510.841,337.796 514.339,339.204 516.372,340.86C542.524,362.163 553.557,389.222 546.421,414.779C545.174,419.245 543.996,424.968 542,426C540.004,427.032 536.406,423.923 534.443,420.97C521.06,400.834 502.331,383.558 473.81,373.499C471.284,372.609 468.788,372.103 467,373C465.212,373.897 463.849,376.312 463.079,378.88C455.669,403.572 466.593,422.828 483.238,436.084C486.924,439.019 490.46,441.582 490,443C489.54,444.418 485.116,444.699 480.479,444.594C443.877,443.764 420.171,424.654 414.985,401.536C414.069,397.456 413.406,393.575 412,393C410.594,392.425 408.933,394.924 406.546,398.087C397.528,410.035 389.834,423.888 382.701,439.66C379.371,447.021 375.195,458.352 371,459C366.805,459.648 361.505,450.819 357.529,443.55C347.369,424.978 345.485,402.249 356.221,382.814C358.09,379.43 358.917,377.905 358,377C357.083,376.095 354.899,376.286 350.722,377.385C320.129,385.439 285.81,374.631 265.239,357.203C259.727,352.532 255.312,347.385 256,345C256.688,342.615 263.758,342.935 269.37,342.893C295.284,342.697 317.394,335.402 335.547,323.132C340.304,319.917 344.911,316.161 345,312.5C345.089,308.839 340.54,304.626 336.083,301.167C314.646,284.531 289.756,275.313 262.117,274.128C259.765,274.027 258.232,273.101 258,272Z" style="fill:white;stroke:black;stroke-width:4.17px;"/>
            <path d="M382,263C375.641,268.383 395.405,287.65 388,291C383.915,292.848 353.454,303.411 352,312.5C351.3,316.873 377.333,311.25 379,319C380.667,326.75 356.833,352.167 362,359C367.167,365.833 396.833,351 402,357C407.167,363 404.333,382 414,388C423.667,394 421.833,362.333 428,363C434.167,363.667 460.167,379.5 468,374C475.833,368.5 459.231,352.97 467,349C475.869,344.468 498.323,337.658 499,326C499.32,320.487 467.502,321.791 468,315C468.347,310.261 489.598,294.495 484,288C480.594,284.048 460.333,290.333 454,285C447.667,279.667 452.172,258.35 446,256C437.387,252.72 423.856,276.809 415,278C407.351,279.029 389.004,257.072 382,263ZM381,302C379.333,304.583 396.333,307.833 396,312.5C395.667,317.167 379.062,326.402 379,330C378.904,335.586 391.404,333.003 396,335C401.297,337.302 401.167,353 404,355C406.833,357 409.026,346.432 413,347C417.667,347.667 428,359.833 432,359C436,358.167 431.829,341.211 437,342C440.97,342.606 456.704,348.354 459,343C460.222,340.151 445.718,330.935 448,327C449.441,324.514 463.989,320.872 463,316C462.366,312.88 445.845,313.143 446,308C446.111,304.309 454.896,290.908 450,288C446.701,286.041 433.32,297.346 427,295C421.648,293.014 414.475,280.935 410,282C406.58,282.814 410.26,294.062 406,297C401.167,300.333 382.667,299.417 381,302Z" style="fill:rgb(243,156,18);"/>
        </g>
        <g id="Letras">
            <g transform="matrix(1,0,0,1,-6.37089,0)">
                <path d="M446.966,381.257C445.657,381.257 444.609,380.864 443.823,380.078C443.037,379.292 442.644,378.245 442.644,376.935L442.644,248.262C442.644,246.821 443.037,245.708 443.823,244.922C444.609,244.136 445.657,243.743 446.966,243.743L523.581,243.743C525.022,243.743 526.135,244.136 526.921,244.922C527.706,245.708 528.099,246.821 528.099,248.262L528.099,251.208C528.099,252.518 527.706,253.566 526.921,254.351C526.135,255.137 525.022,255.53 523.581,255.53L455.021,255.53L455.021,305.624L519.259,305.624C520.7,305.624 521.813,306.017 522.599,306.803C523.384,307.589 523.777,308.702 523.777,310.143L523.777,313.089C523.777,314.399 523.384,315.447 522.599,316.233C521.813,317.018 520.7,317.411 519.259,317.411L455.021,317.411L455.021,369.47L525.152,369.47C526.593,369.47 527.706,369.863 528.492,370.649C529.278,371.434 529.671,372.548 529.671,373.988L529.671,376.935C529.671,378.245 529.278,379.292 528.492,380.078C527.706,380.864 526.593,381.257 525.152,381.257L446.966,381.257Z" style="fill-rule:nonzero;"/>
            </g>
            <g transform="matrix(1,0,0,1,51.9624,162.5)">
                <path d="M522.021,220.721C514.425,220.721 507.975,219.346 502.671,216.596C497.367,213.846 493.078,210.179 489.804,205.595C486.529,201.011 484.139,195.903 482.633,190.272C481.127,184.64 480.243,178.943 479.981,173.181C479.85,171.216 479.785,169.383 479.785,167.68C479.785,165.978 479.85,164.144 479.981,162.18C480.243,156.417 481.127,150.72 482.633,145.089C484.139,139.457 486.529,134.35 489.804,129.766C493.078,125.182 497.367,121.515 502.671,118.765C507.975,116.015 514.425,114.639 522.021,114.639C530.141,114.639 536.853,116.145 542.157,119.158C547.461,122.17 551.75,125.837 555.024,130.159L555.024,83.601C555.024,82.291 555.417,81.243 556.203,80.457C556.989,79.672 558.036,79.279 559.346,79.279L562.686,79.279C563.995,79.279 565.043,79.672 565.829,80.457C566.615,81.243 567.008,82.291 567.008,83.601L567.008,214.435C567.008,215.745 566.615,216.792 565.829,217.578C565.043,218.364 563.995,218.757 562.686,218.757L559.346,218.757C558.036,218.757 556.989,218.364 556.203,217.578C555.417,216.792 555.024,215.745 555.024,214.435L555.024,205.202C551.75,209.655 547.461,213.354 542.157,216.301C536.853,219.248 530.141,220.721 522.021,220.721ZM523.2,209.327C530.665,209.327 536.689,207.559 541.273,204.023C545.857,200.487 549.262,196.067 551.488,190.763C553.715,185.459 554.893,180.122 555.024,174.752C555.155,172.788 555.221,170.234 555.221,167.091C555.221,163.948 555.155,161.394 555.024,159.429C554.893,154.191 553.682,149.018 551.39,143.91C549.098,138.802 545.66,134.546 541.076,131.141C536.493,127.736 530.534,126.033 523.2,126.033C515.604,126.033 509.547,127.736 505.028,131.141C500.51,134.546 497.269,138.999 495.304,144.499C493.34,150 492.226,155.893 491.964,162.18C491.834,165.847 491.834,169.514 491.964,173.181C492.226,179.467 493.34,185.361 495.304,190.861C497.269,196.362 500.51,200.815 505.028,204.22C509.547,207.625 515.604,209.327 523.2,209.327Z" style="fill-rule:nonzero;"/>
            </g>
            <g transform="matrix(1,0,0,1,51.9624,162.5)">
                <path d="M623.977,220.721C611.274,220.721 601.189,216.563 593.724,208.247C586.259,199.93 582.003,189.028 580.955,175.538C580.824,173.574 580.759,170.954 580.759,167.68C580.759,164.406 580.824,161.787 580.955,159.822C581.61,150.917 583.706,143.059 587.242,136.249C590.778,129.438 595.656,124.134 601.877,120.336C608.098,116.538 615.465,114.639 623.977,114.639C633.145,114.639 640.937,116.669 647.355,120.729C653.772,124.789 658.716,130.617 662.187,138.213C665.657,145.809 667.392,154.846 667.392,165.323L667.392,168.27C667.392,169.579 666.967,170.627 666.115,171.413C665.264,172.199 664.184,172.592 662.874,172.592L592.939,172.592L592.939,174.556C593.201,180.449 594.576,186.048 597.064,191.352C599.552,196.656 603.088,200.978 607.672,204.318C612.256,207.657 617.691,209.327 623.977,209.327C629.609,209.327 634.291,208.476 638.023,206.773C641.756,205.071 644.735,203.205 646.962,201.175C649.188,199.145 650.629,197.606 651.284,196.558C652.462,194.856 653.379,193.841 654.034,193.513C654.689,193.186 655.736,193.022 657.177,193.022L660.32,193.022C661.499,193.022 662.514,193.382 663.365,194.103C664.216,194.823 664.577,195.772 664.446,196.951C664.315,198.785 663.3,201.044 661.401,203.728C659.502,206.413 656.817,209.065 653.346,211.685C649.876,214.304 645.652,216.465 640.675,218.167C635.699,219.87 630.133,220.721 623.977,220.721ZM592.939,161.59L655.409,161.59L655.409,160.805C655.409,154.256 654.165,148.363 651.677,143.124C649.188,137.886 645.587,133.728 640.872,130.65C636.157,127.572 630.526,126.033 623.977,126.033C617.429,126.033 611.83,127.572 607.181,130.65C602.532,133.728 598.996,137.886 596.573,143.124C594.15,148.363 592.939,154.256 592.939,160.805L592.939,161.59Z" style="fill-rule:nonzero;"/>
            </g>
            <g transform="matrix(1,0,0,1,-6.37089,0)">
                <path d="M743.21,381.257C741.9,381.257 740.852,380.864 740.066,380.078C739.281,379.292 738.888,378.245 738.888,376.935L738.888,246.101C738.888,244.791 739.281,243.743 740.066,242.957C740.852,242.172 741.9,241.779 743.21,241.779L746.549,241.779C747.859,241.779 748.907,242.172 749.692,242.957C750.478,243.743 750.871,244.791 750.871,246.101L750.871,376.935C750.871,378.245 750.478,379.292 749.692,380.078C748.907,380.864 747.859,381.257 746.549,381.257L743.21,381.257Z" style="fill-rule:nonzero;"/>
            </g>
            <g transform="matrix(1,0,0,1,-6.37089,0)">
                <path d="M796.447,381.257C794.744,381.257 793.435,380.864 792.518,380.078C791.601,379.292 790.815,378.048 790.161,376.346L762.461,285.194C762.2,284.408 762.069,283.688 762.069,283.033C762.069,281.985 762.461,281.068 763.247,280.283C764.033,279.497 764.95,279.104 765.998,279.104L769.73,279.104C771.04,279.104 772.055,279.464 772.775,280.184C773.495,280.905 773.921,281.527 774.052,282.051L798.215,363.773L823.95,283.033C824.212,282.247 824.735,281.396 825.521,280.479C826.307,279.562 827.551,279.104 829.254,279.104L833.183,279.104C834.885,279.104 836.162,279.562 837.013,280.479C837.865,281.396 838.356,282.247 838.487,283.033L864.221,363.773L888.385,282.051C888.516,281.527 888.941,280.905 889.661,280.184C890.382,279.464 891.397,279.104 892.706,279.104L896.439,279.104C897.487,279.104 898.403,279.497 899.189,280.283C899.975,281.068 900.368,281.985 900.368,283.033C900.368,283.688 900.237,284.408 899.975,285.194L872.276,376.346C871.752,378.048 871.032,379.292 870.115,380.078C869.198,380.864 867.823,381.257 865.989,381.257L862.65,381.257C860.947,381.257 859.539,380.864 858.426,380.078C857.313,379.292 856.495,378.048 855.971,376.346L831.218,298.945L806.466,376.346C805.942,378.048 805.156,379.292 804.108,380.078C803.061,380.864 801.62,381.257 799.787,381.257L796.447,381.257Z" style="fill-rule:nonzero;"/>
            </g>
            <g transform="matrix(1,0,0,1,51.9624,162.5)">
                <path d="M890.95,220.721C878.246,220.721 868.162,216.563 860.697,208.247C853.232,199.93 848.976,189.028 847.928,175.538C847.797,173.574 847.732,170.954 847.732,167.68C847.732,164.406 847.797,161.787 847.928,159.822C848.583,150.917 850.678,143.059 854.214,136.249C857.75,129.438 862.629,124.134 868.85,120.336C875.071,116.538 882.437,114.639 890.95,114.639C900.118,114.639 907.91,116.669 914.327,120.729C920.745,124.789 925.689,130.617 929.159,138.213C932.63,145.809 934.365,154.846 934.365,165.323L934.365,168.27C934.365,169.579 933.939,170.627 933.088,171.413C932.237,172.199 931.156,172.592 929.847,172.592L859.911,172.592L859.911,174.556C860.173,180.449 861.548,186.048 864.037,191.352C866.525,196.656 870.061,200.978 874.645,204.318C879.229,207.657 884.664,209.327 890.95,209.327C896.582,209.327 901.264,208.476 904.996,206.773C908.729,205.071 911.708,203.205 913.934,201.175C916.161,199.145 917.601,197.606 918.256,196.558C919.435,194.856 920.352,193.841 921.007,193.513C921.661,193.186 922.709,193.022 924.15,193.022L927.293,193.022C928.472,193.022 929.487,193.382 930.338,194.103C931.189,194.823 931.549,195.772 931.418,196.951C931.287,198.785 930.272,201.044 928.373,203.728C926.474,206.413 923.79,209.065 920.319,211.685C916.848,214.304 912.625,216.465 907.648,218.167C902.671,219.87 897.105,220.721 890.95,220.721ZM859.911,161.59L922.382,161.59L922.382,160.805C922.382,154.256 921.138,148.363 918.649,143.124C916.161,137.886 912.559,133.728 907.845,130.65C903.13,127.572 897.498,126.033 890.95,126.033C884.402,126.033 878.803,127.572 874.154,130.65C869.504,133.728 865.968,137.886 863.546,143.124C861.123,148.363 859.911,154.256 859.911,160.805L859.911,161.59Z"/>
            </g>
            <g transform="matrix(1,0,0,1,-6.37089,0)">
                <path d="M1009.99,381.257C1008.68,381.257 1007.63,380.864 1006.84,380.078C1006.06,379.292 1005.66,378.245 1005.66,376.935L1005.66,283.426C1005.66,282.116 1006.06,281.068 1006.84,280.283C1007.63,279.497 1008.68,279.104 1009.99,279.104L1013.33,279.104C1014.63,279.104 1015.68,279.497 1016.47,280.283C1017.25,281.068 1017.65,282.116 1017.65,283.426L1017.65,376.935C1017.65,378.245 1017.25,379.292 1016.47,380.078C1015.68,380.864 1014.63,381.257 1013.33,381.257L1009.99,381.257Z" style="fill-rule:nonzero;"/>
            </g>
            <g transform="matrix(1,0,0,1,-6.37089,0)">
                <path d="M1007.83,258.084C1006.51,258.084 1005.47,257.691 1004.68,256.905C1003.9,256.119 1003.5,255.072 1003.5,253.762L1003.5,246.297C1003.5,244.987 1003.9,243.907 1004.68,243.056C1005.47,242.204 1006.51,241.779 1007.83,241.779L1015.29,241.779C1016.6,241.779 1017.68,242.204 1018.53,243.056C1019.38,243.907 1019.81,244.987 1019.81,246.297L1019.81,253.762C1019.81,255.072 1019.38,256.119 1018.53,256.905C1017.68,257.691 1016.6,258.084 1015.29,258.084L1007.83,258.084Z" style="fill-rule:nonzero;"/>
            </g>
            <g transform="matrix(1,0,0,1,-6.37089,0)">
                <path d="M1068.92,383.221C1062.11,383.221 1056.25,382.304 1051.34,380.471C1046.43,378.637 1042.4,376.444 1039.26,373.89C1036.11,371.336 1033.79,368.815 1032.28,366.327C1030.78,363.838 1029.96,361.939 1029.83,360.63C1029.7,359.189 1030.15,358.109 1031.2,357.388C1032.25,356.668 1033.23,356.308 1034.15,356.308L1037.1,356.308C1037.88,356.308 1038.57,356.439 1039.16,356.701C1039.75,356.963 1040.5,357.683 1041.42,358.862C1043.12,361.088 1045.08,363.216 1047.31,365.246C1049.54,367.276 1052.39,368.881 1055.86,370.059C1059.33,371.238 1063.68,371.827 1068.92,371.827C1076.78,371.827 1083.26,370.321 1088.37,367.309C1093.48,364.297 1096.03,359.844 1096.03,353.95C1096.03,350.283 1095.02,347.337 1092.99,345.11C1090.95,342.884 1087.52,340.919 1082.67,339.217C1077.83,337.514 1071.28,335.746 1063.03,333.913C1054.78,331.948 1048.46,329.591 1044.07,326.841C1039.68,324.09 1036.7,320.915 1035.13,317.313C1033.56,313.711 1032.77,309.815 1032.77,305.624C1032.77,301.041 1034.08,296.555 1036.7,292.168C1039.32,287.78 1043.22,284.179 1048.39,281.363C1053.56,278.547 1060.08,277.139 1067.94,277.139C1074.36,277.139 1079.82,277.991 1084.34,279.693C1088.86,281.396 1092.56,283.458 1095.44,285.881C1098.32,288.304 1100.45,290.694 1101.83,293.052C1103.2,295.409 1103.95,297.308 1104.08,298.749C1104.21,300.058 1103.82,301.106 1102.91,301.892C1101.99,302.678 1100.94,303.071 1099.76,303.071L1096.82,303.071C1095.77,303.071 1094.92,302.841 1094.26,302.383C1093.61,301.925 1093.02,301.302 1092.49,300.517C1091.18,298.421 1089.61,296.457 1087.78,294.623C1085.95,292.79 1083.49,291.316 1080.41,290.203C1077.34,289.09 1073.18,288.533 1067.94,288.533C1060.08,288.533 1054.25,290.138 1050.45,293.346C1046.66,296.555 1044.76,300.648 1044.76,305.624C1044.76,308.506 1045.54,311.027 1047.11,313.188C1048.69,315.348 1051.63,317.313 1055.95,319.081C1060.28,320.849 1066.56,322.715 1074.81,324.68C1083.19,326.513 1089.81,328.772 1094.65,331.457C1099.5,334.142 1102.94,337.318 1104.97,340.985C1107,344.652 1108.01,348.974 1108.01,353.95C1108.01,359.189 1106.54,364.035 1103.59,368.488C1100.65,372.94 1096.26,376.509 1090.43,379.194C1084.6,381.879 1077.43,383.221 1068.92,383.221Z" style="fill-rule:nonzero;"/>
            </g>
            <g transform="matrix(1,0,0,1,-6.37089,0)">
                <path d="M1152.61,383.221C1145.8,383.221 1139.94,382.304 1135.03,380.471C1130.11,378.637 1126.09,376.444 1122.94,373.89C1119.8,371.336 1117.48,368.815 1115.97,366.327C1114.46,363.838 1113.64,361.939 1113.51,360.63C1113.38,359.189 1113.84,358.109 1114.89,357.388C1115.94,356.668 1116.92,356.308 1117.84,356.308L1120.78,356.308C1121.57,356.308 1122.26,356.439 1122.85,356.701C1123.43,356.963 1124.19,357.683 1125.1,358.862C1126.81,361.088 1128.77,363.216 1131,365.246C1133.22,367.276 1136.07,368.881 1139.54,370.059C1143.01,371.238 1147.37,371.827 1152.61,371.827C1160.46,371.827 1166.95,370.321 1172.06,367.309C1177.16,364.297 1179.72,359.844 1179.72,353.95C1179.72,350.283 1178.7,347.337 1176.67,345.11C1174.64,342.884 1171.2,340.919 1166.36,339.217C1161.51,337.514 1154.96,335.746 1146.71,333.913C1138.46,331.948 1132.14,329.591 1127.76,326.841C1123.37,324.09 1120.39,320.915 1118.82,317.313C1117.25,313.711 1116.46,309.815 1116.46,305.624C1116.46,301.041 1117.77,296.555 1120.39,292.168C1123.01,287.78 1126.9,284.179 1132.08,281.363C1137.25,278.547 1143.77,277.139 1151.62,277.139C1158.04,277.139 1163.51,277.991 1168.03,279.693C1172.55,281.396 1176.25,283.458 1179.13,285.881C1182.01,288.304 1184.14,290.694 1185.51,293.052C1186.89,295.409 1187.64,297.308 1187.77,298.749C1187.9,300.058 1187.51,301.106 1186.59,301.892C1185.68,302.678 1184.63,303.071 1183.45,303.071L1180.5,303.071C1179.45,303.071 1178.6,302.841 1177.95,302.383C1177.29,301.925 1176.7,301.302 1176.18,300.517C1174.87,298.421 1173.3,296.457 1171.47,294.623C1169.63,292.79 1167.18,291.316 1164.1,290.203C1161.02,289.09 1156.86,288.533 1151.62,288.533C1143.77,288.533 1137.94,290.138 1134.14,293.346C1130.34,296.555 1128.44,300.648 1128.44,305.624C1128.44,308.506 1129.23,311.027 1130.8,313.188C1132.37,315.348 1135.32,317.313 1139.64,319.081C1143.96,320.849 1150.25,322.715 1158.5,324.68C1166.88,326.513 1173.5,328.772 1178.34,331.457C1183.19,334.142 1186.62,337.318 1188.65,340.985C1190.68,344.652 1191.7,348.974 1191.7,353.95C1191.7,359.189 1190.23,364.035 1187.28,368.488C1184.33,372.94 1179.95,376.509 1174.12,379.194C1168.29,381.879 1161.12,383.221 1152.61,383.221Z" style="fill-rule:nonzero;"/>
            </g>
        </g>
        <g id="Agujeros">
        </g>
    </g>
</svg>
