<?xml version="1.0" encoding="UTF-8" standalone="no"?>
<!DOCTYPE svg PUBLIC "-//W3C//DTD SVG 1.1//EN" "http://www.w3.org/Graphics/SVG/1.1/DTD/svg11.dtd">
<svg width="100%" height="100%" viewBox="0 0 1250 625" version="1.1" xmlns="http://www.w3.org/2000/svg" xmlns:xlink="http://www.w3.org/1999/xlink" xml:space="preserve" xmlns:serif="http://www.serif.com/" style="fill-rule:evenodd;clip-rule:evenodd;stroke-linecap:round;stroke-linejoin:round;stroke-miterlimit:1.5;">
    <g transform="matrix(1,0,0,1,6.37089,0)">
        <g id="Isotipo" transform="matrix(1,0,0,1,-204,2.99287)">
            <path d="M258,272C257.768,270.899 258.642,269.596 260.724,267.52C286.468,241.858 337.636,229.673 371.769,250.796C374.277,252.348 376.014,254.38 377,254C377.986,253.62 377.94,251.017 377.688,248.518C373.83,210.376 412.045,171.644 448.924,161.533C454.705,159.948 460.573,159.264 462,161C463.427,162.736 460.108,167.64 457.486,171.947C442.244,196.988 434.644,221.601 440.229,243.715C440.937,246.518 441.899,250.368 444,251C446.101,251.632 449.67,249.158 452.835,247.505C472.357,237.312 487.443,221.344 495.878,201.478C496.64,199.683 497.06,198.225 498,198C498.94,197.775 500.425,198.701 501.519,200.126C518.446,222.179 516.603,255.658 499.64,273.908C497.096,276.644 493.464,279.416 494,281C494.536,282.584 498.432,282.816 502.853,283.412C527.667,286.761 565.195,283.552 580.066,273.43C583.378,271.175 590.654,270.33 592,272C593.346,273.67 589.71,279.892 588.142,283.448C574.295,314.854 544.759,334.715 517.325,336.084C514.862,336.206 511.159,336.204 511,337C510.841,337.796 514.339,339.204 516.372,340.86C542.524,362.163 553.557,389.222 546.421,414.779C545.174,419.245 543.996,424.968 542,426C540.004,427.032 536.406,423.923 534.443,420.97C521.06,400.834 502.331,383.558 473.81,373.499C471.284,372.609 468.788,372.103 467,373C465.212,373.897 463.849,376.312 463.079,378.88C455.669,403.572 466.593,422.828 483.238,436.084C486.924,439.019 490.46,441.582 490,443C489.54,444.418 485.116,444.699 480.479,444.594C443.877,443.764 420.171,424.654 414.985,401.536C414.069,397.456 413.406,393.575 412,393C410.594,392.425 408.933,394.924 406.546,398.087C397.528,410.035 389.834,423.888 382.701,439.66C379.371,447.021 375.195,458.352 371,459C366.805,459.648 361.505,450.819 357.529,443.55C347.369,424.978 345.485,402.249 356.221,382.814C358.09,379.43 358.917,377.905 358,377C357.083,376.095 354.899,376.286 350.722,377.385C320.129,385.439 285.81,374.631 265.239,357.203C259.727,352.532 255.312,347.385 256,345C256.688,342.615 263.758,342.935 269.37,342.893C295.284,342.697 317.394,335.402 335.547,323.132C340.304,319.917 344.911,316.161 345,312.5C345.089,308.839 340.54,304.626 336.083,301.167C314.646,284.531 289.756,275.313 262.117,274.128C259.765,274.027 258.232,273.101 258,272Z" style="fill:white;stroke:black;stroke-width:4.17px;"/>
            <path d="M382,263C375.641,268.383 395.405,287.65 388,291C383.915,292.848 353.454,303.411 352,312.5C351.3,316.873 377.333,311.25 379,319C380.667,326.75 356.833,352.167 362,359C367.167,365.833 396.833,351 402,357C407.167,363 404.333,382 414,388C423.667,394 421.833,362.333 428,363C434.167,363.667 460.167,379.5 468,374C475.833,368.5 459.231,352.97 467,349C475.869,344.468 498.323,337.658 499,326C499.32,320.487 467.502,321.791 468,315C468.347,310.261 489.598,294.495 484,288C480.594,284.048 460.333,290.333 454,285C447.667,279.667 452.172,258.35 446,256C437.387,252.72 423.856,276.809 415,278C407.351,279.029 389.004,257.072 382,263ZM381,302C379.333,304.583 396.333,307.833 396,312.5C395.667,317.167 379.062,326.402 379,330C378.904,335.586 391.404,333.003 396,335C401.297,337.302 401.167,353 404,355C406.833,357 409.026,346.432 413,347C417.667,347.667 428,359.833 432,359C436,358.167 431.829,341.211 437,342C440.97,342.606 456.704,348.354 459,343C460.222,340.151 445.718,330.935 448,327C449.441,324.514 463.989,320.872 463,316C462.366,312.88 445.845,313.143 446,308C446.111,304.309 454.896,290.908 450,288C446.701,286.041 433.32,297.346 427,295C421.648,293.014 414.475,280.935 410,282C406.58,282.814 410.26,294.062 406,297C401.167,300.333 382.667,299.417 381,302Z" style="fill:rgb(243,156,18);"/>
        </g>
        <g id="Letras">
            <g transform="matrix(1,0,0,1,-6.37089,0)">
                <path d="M446.966,381.257C445.657,381.257 444.609,380.864 443.823,380.078C443.037,379.292 442.644,378.245 442.644,376.935L442.644,248.262C442.644,246.821 443.037,245.708 443.823,244.922C444.609,244.136 445.657,243.743 446.966,243.743L523.581,243.743C525.022,243.743 526.135,244.136 526.921,244.922C527.706,245.708 528.099,246.821 528.099,248.262L528.099,251.208C528.099,252.518 527.706,253.566 526.921,254.351C526.135,255.137 525.022,255.53 523.581,255.53L455.021,255.53L455.021,305.624L519.259,305.624C520.7,305.624 521.813,306.017 522.599,306.803C523.384,307.589 523.777,308.702 523.777,310.143L523.777,313.089C523.777,314.399 523.384,315.447 522.599,316.233C521.813,317.018 520.7,317.411 519.259,317.411L455.021,317.411L455.021,369.47L525.152,369.47C526.593,369.47 527.706,369.863 528.492,370.649C529.278,371.434 529.671,372.548 529.671,373.988L529.671,376.935C529.671,378.245 529.278,379.292 528.492,380.078C527.706,380.864 526.593,381.257 525.152,381.257L446.966,381.257Z" style="fill-rule:nonzero;"/>
            </g>
            <g transform="matrix(1,0,0,1,-6.37089,0)">
                <path d="M580.354,383.221C572.758,383.221 566.308,381.846 561.004,379.096C555.7,376.346 551.411,372.679 548.137,368.095C544.863,363.511 542.473,358.403 540.967,352.772C539.46,347.14 538.576,341.443 538.314,335.681C538.184,333.716 538.118,331.883 538.118,330.18C538.118,328.478 538.184,326.644 538.314,324.68C538.576,318.917 539.46,313.22 540.967,307.589C542.473,301.957 544.863,296.85 548.137,292.266C551.411,287.682 555.7,284.015 561.004,281.265C566.308,278.515 572.758,277.139 580.354,277.139C588.474,277.139 595.186,278.645 600.49,281.658C605.794,284.67 610.083,288.337 613.358,292.659L613.358,246.101C613.358,244.791 613.75,243.743 614.536,242.957C615.322,242.172 616.37,241.779 617.679,241.779L621.019,241.779C622.329,241.779 623.376,242.172 624.162,242.957C624.948,243.743 625.341,244.791 625.341,246.101L625.341,376.935C625.341,378.245 624.948,379.292 624.162,380.078C623.376,380.864 622.329,381.257 621.019,381.257L617.679,381.257C616.37,381.257 615.322,380.864 614.536,380.078C613.75,379.292 613.358,378.245 613.358,376.935L613.358,367.702C610.083,372.155 605.794,375.854 600.49,378.801C595.186,381.748 588.474,383.221 580.354,383.221Z" style="fill-rule:nonzero;"/>
            </g>
            <g transform="matrix(1,0,0,1,-6.37089,0)">
                <path d="M682.311,383.221C669.607,383.221 659.523,379.063 652.058,370.747C644.593,362.43 640.336,351.528 639.289,338.038C639.158,336.074 639.092,333.454 639.092,330.18C639.092,326.906 639.158,324.287 639.289,322.322C639.944,313.417 642.039,305.559 645.575,298.749C649.111,291.938 653.99,286.634 660.21,282.836C666.431,279.038 673.798,277.139 682.311,277.139C691.478,277.139 699.271,279.169 705.688,283.229C712.105,287.289 717.049,293.117 720.52,300.713C723.99,308.309 725.726,317.346 725.726,327.823L725.726,330.77C725.726,332.079 725.3,333.127 724.449,333.913C723.598,334.699 722.517,335.092 721.207,335.092L651.272,335.092L651.272,337.056C651.534,342.949 652.909,348.548 655.397,353.852C657.886,359.156 661.422,363.478 666.006,366.818C670.589,370.157 676.024,371.827 682.311,371.827C687.942,371.827 692.624,370.976 696.357,369.273C700.089,367.571 703.069,365.705 705.295,363.675C707.522,361.645 708.962,360.106 709.617,359.058C710.796,357.356 711.712,356.341 712.367,356.013C713.022,355.686 714.07,355.522 715.51,355.522L718.654,355.522C719.832,355.522 720.847,355.882 721.699,356.603C722.55,357.323 722.91,358.272 722.779,359.451C722.648,361.285 721.633,363.544 719.734,366.228C717.835,368.913 715.15,371.565 711.68,374.185C708.209,376.804 703.986,378.965 699.009,380.667C694.032,382.37 688.466,383.221 682.311,383.221Z" style="fill-rule:nonzero;"/>
            </g>
            <g transform="matrix(1,0,0,1,-6.37089,0)">
                <path d="M743.21,381.257C741.9,381.257 740.852,380.864 740.066,380.078C739.281,379.292 738.888,378.245 738.888,376.935L738.888,246.101C738.888,244.791 739.281,243.743 740.066,242.957C740.852,242.172 741.9,241.779 743.21,241.779L746.549,241.779C747.859,241.779 748.907,242.172 749.692,242.957C750.478,243.743 750.871,244.791 750.871,246.101L750.871,376.935C750.871,378.245 750.478,379.292 749.692,380.078C748.907,380.864 747.859,381.257 746.549,381.257L743.21,381.257Z" style="fill-rule:nonzero;"/>
            </g>
            <g transform="matrix(1,0,0,1,-6.37089,0)">
                <path d="M796.447,381.257C794.744,381.257 793.435,380.864 792.518,380.078C791.601,379.292 790.815,378.048 790.161,376.346L762.461,285.194C762.2,284.408 762.069,283.688 762.069,283.033C762.069,281.985 762.461,281.068 763.247,280.283C764.033,279.497 764.95,279.104 765.998,279.104L769.73,279.104C771.04,279.104 772.055,279.464 772.775,280.184C773.495,280.905 773.921,281.527 774.052,282.051L798.215,363.773L823.95,283.033C824.212,282.247 824.735,281.396 825.521,280.479C826.307,279.562 827.551,279.104 829.254,279.104L833.183,279.104C834.885,279.104 836.162,279.562 837.013,280.479C837.865,281.396 838.356,282.247 838.487,283.033L864.221,363.773L888.385,282.051C888.516,281.527 888.941,280.905 889.661,280.184C890.382,279.464 891.397,279.104 892.706,279.104L896.439,279.104C897.487,279.104 898.403,279.497 899.189,280.283C899.975,281.068 900.368,281.985 900.368,283.033C900.368,283.688 900.237,284.408 899.975,285.194L872.276,376.346C871.752,378.048 871.032,379.292 870.115,380.078C869.198,380.864 867.823,381.257 865.989,381.257L862.65,381.257C860.947,381.257 859.539,380.864 858.426,380.078C857.313,379.292 856.495,378.048 855.971,376.346L831.218,298.945L806.466,376.346C805.942,378.048 805.156,379.292 804.108,380.078C803.061,380.864 801.62,381.257 799.787,381.257L796.447,381.257Z" style="fill-rule:nonzero;"/>
            </g>
            <g transform="matrix(1,0,0,1,-6.37089,0)">
                <path d="M949.283,383.221C936.58,383.221 926.495,379.063 919.03,370.747C911.565,362.43 907.309,351.528 906.261,338.038C906.13,336.074 906.065,333.454 906.065,330.18C906.065,326.906 906.13,324.287 906.261,322.322C906.916,313.417 909.012,305.559 912.548,298.749C916.084,291.938 920.962,286.634 927.183,282.836C933.404,279.038 940.771,277.139 949.283,277.139C958.451,277.139 966.243,279.169 972.661,283.229C979.078,287.289 984.022,293.117 987.492,300.713C990.963,308.309 992.698,317.346 992.698,327.823L992.698,330.77C992.698,332.079 992.273,333.127 991.421,333.913C990.57,334.699 989.49,335.092 988.18,335.092L918.245,335.092L918.245,337.056C918.507,342.949 919.882,348.548 922.37,353.852C924.858,359.156 928.394,363.478 932.978,366.818C937.562,370.157 942.997,371.827 949.283,371.827C954.915,371.827 959.597,370.976 963.329,369.273C967.062,367.571 970.041,365.705 972.268,363.675C974.494,361.645 975.935,360.106 976.59,359.058C977.768,357.356 978.685,356.341 979.34,356.013C979.995,355.686 981.042,355.522 982.483,355.522L985.626,355.522C986.805,355.522 987.82,355.882 988.671,356.603C989.522,357.323 989.883,358.272 989.752,359.451C989.621,361.285 988.606,363.544 986.707,366.228C984.808,368.913 982.123,371.565 978.652,374.185C975.182,376.804 970.958,378.965 965.981,380.667C961.005,382.37 955.439,383.221 949.283,383.221Z" style="fill-rule:nonzero;"/>
            </g>
            <g transform="matrix(1,0,0,1,-6.37089,0)">
                <path d="M1009.99,381.257C1008.68,381.257 1007.63,380.864 1006.84,380.078C1006.06,379.292 1005.66,378.245 1005.66,376.935L1005.66,283.426C1005.66,282.116 1006.06,281.068 1006.84,280.283C1007.63,279.497 1008.68,279.104 1009.99,279.104L1013.33,279.104C1014.63,279.104 1015.68,279.497 1016.47,280.283C1017.25,281.068 1017.65,282.116 1017.65,283.426L1017.65,376.935C1017.65,378.245 1017.25,379.292 1016.47,380.078C1015.68,380.864 1014.63,381.257 1013.33,381.257L1009.99,381.257Z" style="fill-rule:nonzero;"/>
            </g>
            <g transform="matrix(1,0,0,1,-6.37089,0)">
                <path d="M1007.83,258.084C1006.51,258.084 1005.47,257.691 1004.68,256.905C1003.9,256.119 1003.5,255.072 1003.5,253.762L1003.5,246.297C1003.5,244.987 1003.9,243.907 1004.68,243.056C1005.47,242.204 1006.51,241.779 1007.83,241.779L1015.29,241.779C1016.6,241.779 1017.68,242.204 1018.53,243.056C1019.38,243.907 1019.81,244.987 1019.81,246.297L1019.81,253.762C1019.81,255.072 1019.38,256.119 1018.53,256.905C1017.68,257.691 1016.6,258.084 1015.29,258.084L1007.83,258.084Z" style="fill-rule:nonzero;"/>
            </g>
            <g transform="matrix(1,0,0,1,-6.37089,0)">
                <path d="M1068.92,383.221C1062.11,383.221 1056.25,382.304 1051.34,380.471C1046.43,378.637 1042.4,376.444 1039.26,373.89C1036.11,371.336 1033.79,368.815 1032.28,366.327C1030.78,363.838 1029.96,361.939 1029.83,360.63C1029.7,359.189 1030.15,358.109 1031.2,357.388C1032.25,356.668 1033.23,356.308 1034.15,356.308L1037.1,356.308C1037.88,356.308 1038.57,356.439 1039.16,356.701C1039.75,356.963 1040.5,357.683 1041.42,358.862C1043.12,361.088 1045.08,363.216 1047.31,365.246C1049.54,367.276 1052.39,368.881 1055.86,370.059C1059.33,371.238 1063.68,371.827 1068.92,371.827C1076.78,371.827 1083.26,370.321 1088.37,367.309C1093.48,364.297 1096.03,359.844 1096.03,353.95C1096.03,350.283 1095.02,347.337 1092.99,345.11C1090.95,342.884 1087.52,340.919 1082.67,339.217C1077.83,337.514 1071.28,335.746 1063.03,333.913C1054.78,331.948 1048.46,329.591 1044.07,326.841C1039.68,324.09 1036.7,320.915 1035.13,317.313C1033.56,313.711 1032.77,309.815 1032.77,305.624C1032.77,301.041 1034.08,296.555 1036.7,292.168C1039.32,287.78 1043.22,284.179 1048.39,281.363C1053.56,278.547 1060.08,277.139 1067.94,277.139C1074.36,277.139 1079.82,277.991 1084.34,279.693C1088.86,281.396 1092.56,283.458 1095.44,285.881C1098.32,288.304 1100.45,290.694 1101.83,293.052C1103.2,295.409 1103.95,297.308 1104.08,298.749C1104.21,300.058 1103.82,301.106 1102.91,301.892C1101.99,302.678 1100.94,303.071 1099.76,303.071L1096.82,303.071C1095.77,303.071 1094.92,302.841 1094.26,302.383C1093.61,301.925 1093.02,301.302 1092.49,300.517C1091.18,298.421 1089.61,296.457 1087.78,294.623C1085.95,292.79 1083.49,291.316 1080.41,290.203C1077.34,289.09 1073.18,288.533 1067.94,288.533C1060.08,288.533 1054.25,290.138 1050.45,293.346C1046.66,296.555 1044.76,300.648 1044.76,305.624C1044.76,308.506 1045.54,311.027 1047.11,313.188C1048.69,315.348 1051.63,317.313 1055.95,319.081C1060.28,320.849 1066.56,322.715 1074.81,324.68C1083.19,326.513 1089.81,328.772 1094.65,331.457C1099.5,334.142 1102.94,337.318 1104.97,340.985C1107,344.652 1108.01,348.974 1108.01,353.95C1108.01,359.189 1106.54,364.035 1103.59,368.488C1100.65,372.94 1096.26,376.509 1090.43,379.194C1084.6,381.879 1077.43,383.221 1068.92,383.221Z" style="fill-rule:nonzero;"/>
            </g>
            <g transform="matrix(1,0,0,1,-6.37089,0)">
                <path d="M1152.61,383.221C1145.8,383.221 1139.94,382.304 1135.03,380.471C1130.11,378.637 1126.09,376.444 1122.94,373.89C1119.8,371.336 1117.48,368.815 1115.97,366.327C1114.46,363.838 1113.64,361.939 1113.51,360.63C1113.38,359.189 1113.84,358.109 1114.89,357.388C1115.94,356.668 1116.92,356.308 1117.84,356.308L1120.78,356.308C1121.57,356.308 1122.26,356.439 1122.85,356.701C1123.43,356.963 1124.19,357.683 1125.1,358.862C1126.81,361.088 1128.77,363.216 1131,365.246C1133.22,367.276 1136.07,368.881 1139.54,370.059C1143.01,371.238 1147.37,371.827 1152.61,371.827C1160.46,371.827 1166.95,370.321 1172.06,367.309C1177.16,364.297 1179.72,359.844 1179.72,353.95C1179.72,350.283 1178.7,347.337 1176.67,345.11C1174.64,342.884 1171.2,340.919 1166.36,339.217C1161.51,337.514 1154.96,335.746 1146.71,333.913C1138.46,331.948 1132.14,329.591 1127.76,326.841C1123.37,324.09 1120.39,320.915 1118.82,317.313C1117.25,313.711 1116.46,309.815 1116.46,305.624C1116.46,301.041 1117.77,296.555 1120.39,292.168C1123.01,287.78 1126.9,284.179 1132.08,281.363C1137.25,278.547 1143.77,277.139 1151.62,277.139C1158.04,277.139 1163.51,277.991 1168.03,279.693C1172.55,281.396 1176.25,283.458 1179.13,285.881C1182.01,288.304 1184.14,290.694 1185.51,293.052C1186.89,295.409 1187.64,297.308 1187.77,298.749C1187.9,300.058 1187.51,301.106 1186.59,301.892C1185.68,302.678 1184.63,303.071 1183.45,303.071L1180.5,303.071C1179.45,303.071 1178.6,302.841 1177.95,302.383C1177.29,301.925 1176.7,301.302 1176.18,300.517C1174.87,298.421 1173.3,296.457 1171.47,294.623C1169.63,292.79 1167.18,291.316 1164.1,290.203C1161.02,289.09 1156.86,288.533 1151.62,288.533C1143.77,288.533 1137.94,290.138 1134.14,293.346C1130.34,296.555 1128.44,300.648 1128.44,305.624C1128.44,308.506 1129.23,311.027 1130.8,313.188C1132.37,315.348 1135.32,317.313 1139.64,319.081C1143.96,320.849 1150.25,322.715 1158.5,324.68C1166.88,326.513 1173.5,328.772 1178.34,331.457C1183.19,334.142 1186.62,337.318 1188.65,340.985C1190.68,344.652 1191.7,348.974 1191.7,353.95C1191.7,359.189 1190.23,364.035 1187.28,368.488C1184.33,372.94 1179.95,376.509 1174.12,379.194C1168.29,381.879 1161.12,383.221 1152.61,383.221Z" style="fill-rule:nonzero;"/>
            </g>
        </g>
        <g id="Agujeros">
            <g transform="matrix(1,0,0,1,-6.37089,0)">
                <path d="M581.533,371.827C588.998,371.827 595.022,370.059 599.606,366.523C604.19,362.987 607.595,358.567 609.821,353.263C612.048,347.959 613.227,342.622 613.358,337.252C613.489,335.288 613.554,332.734 613.554,329.591C613.554,326.448 613.489,323.894 613.358,321.929C613.227,316.691 612.015,311.518 609.723,306.41C607.431,301.302 603.994,297.046 599.41,293.641C594.826,290.236 588.867,288.533 581.533,288.533C573.937,288.533 567.88,290.236 563.362,293.641C558.843,297.046 555.602,301.499 553.637,306.999C551.673,312.5 550.56,318.393 550.298,324.68C550.167,328.347 550.167,332.014 550.298,335.681C550.56,341.967 551.673,347.861 553.637,353.361C555.602,358.862 558.843,363.315 563.362,366.72C567.88,370.125 573.937,371.827 581.533,371.827Z" style="fill:white;fill-rule:nonzero;"/>
            </g>
            <g transform="matrix(1,0,0,1,-6.37089,0)">
                <path d="M651.272,324.09L713.742,324.09L713.742,323.305C713.742,316.756 712.498,310.863 710.01,305.624C707.522,300.386 703.92,296.228 699.205,293.15C694.491,290.072 688.859,288.533 682.311,288.533C675.762,288.533 670.164,290.072 665.514,293.15C660.865,296.228 657.329,300.386 654.906,305.624C652.483,310.863 651.272,316.756 651.272,323.305L651.272,324.09Z" style="fill:white;fill-rule:nonzero;"/>
            </g>
            <g transform="matrix(1,0,0,1,-6.37089,0)">
                <path d="M918.245,324.09L980.715,324.09L980.715,323.305C980.715,316.756 979.471,310.863 976.983,305.624C974.494,300.386 970.893,296.228 966.178,293.15C961.463,290.072 955.832,288.533 949.283,288.533C942.735,288.533 937.136,290.072 932.487,293.15C927.838,296.228 924.302,300.386 921.879,305.624C919.456,310.863 918.245,316.756 918.245,323.305L918.245,324.09Z" style="fill:white;fill-rule:nonzero;"/>
            </g>
        </g>
    </g>
</svg>
