<?xml version="1.0" standalone="no"?>
<!DOCTYPE svg PUBLIC "-//W3C//DTD SVG 20010904//EN"
 "http://www.w3.org/TR/2001/REC-SVG-20010904/DTD/svg10.dtd">
<svg version="1.0" xmlns="http://www.w3.org/2000/svg"
 width="218.000000pt" height="231.000000pt" viewBox="0 0 218.000000 231.000000"
 preserveAspectRatio="xMidYMid meet">

<g transform="translate(0.000000,231.000000) scale(0.100000,-0.100000)"
fill="#000000" stroke="none">
<path d="M1065 2303 c-127 -10 -316 -63 -430 -121 -260 -131 -478 -383 -570
-656 -111 -330 -71 -674 112 -979 57 -94 196 -245 291 -315 546 -404 1310
-258 1676 320 l37 58 -68 0 -68 0 -60 -82 c-129 -175 -333 -312 -560 -374
-123 -34 -313 -43 -443 -20 -441 77 -788 433 -852 874 -7 46 -10 85 -8 88 3 2
166 3 364 2 357 -3 359 -3 309 -21 -100 -34 -153 -116 -122 -188 15 -38 65
-69 109 -69 55 0 122 46 212 144 49 53 97 101 108 107 18 10 19 8 12 -28 -4
-21 -20 -78 -36 -128 -50 -153 -48 -233 8 -286 36 -34 112 -34 148 0 56 53 58
131 8 291 -38 120 -46 160 -34 160 6 0 55 -47 109 -105 110 -119 177 -162 237
-152 51 8 85 35 97 77 10 34 9 44 -12 87 -31 61 -76 84 -224 117 -131 29 -172
43 -159 56 5 5 68 23 139 40 192 46 242 76 259 157 14 65 -46 133 -116 133
-53 0 -123 -49 -222 -155 -53 -58 -102 -105 -108 -105 -12 0 -4 40 34 160 50
160 48 238 -8 291 -34 32 -111 34 -144 4 -55 -49 -62 -121 -25 -246 43 -144
57 -201 50 -207 -3 -3 -56 46 -118 109 -86 89 -123 120 -159 134 -58 21 -106
14 -141 -21 -39 -38 -43 -76 -15 -131 23 -46 48 -65 128 -97 31 -13 -5 -14
-328 -15 l-364 -1 7 63 c48 418 358 774 770 884 88 23 119 26 260 27 181 1
265 -15 412 -77 164 -69 343 -213 437 -350 l39 -57 69 0 69 0 -37 58 c-115
182 -284 337 -469 430 -162 81 -422 131 -610 115z"/>
</g>
</svg>
